<?xml version="1.0" encoding="utf-8"?>
<!-- Generator: Adobe Illustrator 16.0.4, SVG Export Plug-In . SVG Version: 6.00 Build 0)  -->
<!DOCTYPE svg PUBLIC "-//W3C//DTD SVG 1.1//EN" "http://www.w3.org/Graphics/SVG/1.1/DTD/svg11.dtd">
<svg version="1.1" id="Warstwa_1" xmlns="http://www.w3.org/2000/svg" xmlns:xlink="http://www.w3.org/1999/xlink" x="0px" y="0px"
	 width="320px" height="320px" viewBox="0 0 320 320" enable-background="new 0 0 320 320" xml:space="preserve">
<g id="XMLID_370_">
	<g id="XMLID_361_">
		<g id="XMLID_44_">
			<g id="XMLID_46_">
				<path id="XMLID_58_" fill="#EDC4A9" d="M159.344,140.926h-36.819v28.576v19.047c0,7.073,11.677,29.504,36.819,29.504V140.926z"
					/>
				<g id="XMLID_50_">
					<path id="XMLID_52_" fill="#F4D4BD" d="M159.344,46.588c-41.483,0-47.629,28.606-47.629,65.264
						c0,40.562,24.266,67.484,47.629,67.484V46.588z"/>
				</g>
				<path id="XMLID_49_" fill="#F4D4BD" d="M112.274,106.971c-2.919-10.909-6.914-10.909-8.604-8.144
					c-1.69,2.766-0.416,9.379,2.453,19.94c2.298,8.452,4.601,12.416,7.834,9.221C117.19,124.792,112.274,106.971,112.274,106.971z"
					/>
				<path id="XMLID_27_" fill="#EFEEED" d="M106.514,197.005c-0.124,0.018-0.237,0.037-0.36,0.055l0,0h-0.001
					c-4.124,0.614-65.119,6.515-71.313,31.288c-3.803,15.21-11.523,90.342-11.523,90.342h120.952h6.58h8.496v-99.13L106.514,197.005
					z"/>
				<g id="XMLID_23_">
					<polygon id="XMLID_42_" fill="#9B273D" points="159.344,246.9 148.112,246.9 145.7,318.689 159.344,318.689 					"/>
					<polygon id="XMLID_26_" fill="#C43348" points="159.344,219.56 149.461,219.56 140.935,234.57 148.112,246.9 159.344,246.9 
											"/>
				</g>
				<g id="XMLID_37_">
					<path id="XMLID_29_" fill="#CCCCCC" d="M135.444,197.502l-12.919-12.481c-6.562,3.841-16.011,11.984-16.011,11.984
						l43.625,52.424l9.205-29.869l-0.691-0.772L135.444,197.502z"/>
					<path id="XMLID_28_" fill="#FFFFFF" d="M136.135,197.005l-13.61-11.984c-6.562,3.688-16.011,11.984-16.011,11.984
						l43.625,48.935l9.205-26.38v-2.119L136.135,197.005z"/>
				</g>
			</g>
			<g id="XMLID_56_">
				<path id="XMLID_68_" fill="#DDB59F" d="M159.344,140.926h36.819v28.576v19.047c0,7.073-11.676,29.504-36.819,29.504V140.926z"/>
				<g id="XMLID_66_">
					<path id="XMLID_67_" fill="#E0C1AD" d="M159.344,46.588c41.484,0,47.629,28.606,47.629,65.264
						c0,40.562-24.266,67.484-47.629,67.484V46.588z"/>
				</g>
				<path id="XMLID_65_" fill="#E0C1AD" d="M206.414,106.971c2.919-10.909,6.915-10.909,8.604-8.144
					c1.69,2.766,0.416,9.379-2.453,19.94c-2.298,8.452-4.601,12.416-7.834,9.221C201.498,124.792,206.414,106.971,206.414,106.971z"
					/>
				<path id="XMLID_64_" fill="#E0DBD5" d="M212.174,197.005c0.125,0.018,0.238,0.037,0.362,0.055l0,0l0,0
					c4.122,0.614,65.117,6.515,71.312,31.288c3.805,15.21,11.524,90.342,11.524,90.342H174.42h-6.579h-8.497v-99.13L212.174,197.005
					z"/>
				<g id="XMLID_61_">
					<polygon id="XMLID_63_" fill="#89122F" points="159.344,246.9 170.576,246.9 172.988,318.689 159.344,318.689 					"/>
					<polygon id="XMLID_62_" fill="#AF2E47" points="159.344,219.56 169.228,219.56 177.754,234.57 170.576,246.9 159.344,246.9 
											"/>
				</g>
				<g id="XMLID_57_">
					<path id="XMLID_60_" fill="#CCCCCC" d="M183.244,197.502l12.919-12.481c6.562,3.841,16.011,11.984,16.011,11.984
						l-43.624,52.424l-9.206-29.869l0.691-0.772L183.244,197.502z"/>
					<path id="XMLID_59_" fill="#FFFFFF" d="M182.554,197.005l13.609-11.984c6.562,3.688,16.011,11.984,16.011,11.984
						l-43.624,48.935l-9.206-26.38v-2.119L182.554,197.005z"/>
				</g>
			</g>
			<path id="XMLID_264_" fill="none" d="M123.895,74.735c-0.408,0.522-0.795,1.056-1.167,1.599
				c5.86-2.481,17.315-8.103,24.198-16.495C138.041,62.592,129.213,67.935,123.895,74.735z"/>
			<path id="XMLID_267_" fill="#5B5449" d="M131.122,83.769c0,0,14.062-2.074,28.222-7.416v-4.477
				C146.79,79.631,131.122,83.769,131.122,83.769z"/>
			<path id="XMLID_270_" fill="#5B5449" d="M109.734,52.888c-7.365,30.641,0.92,58.631,1.909,61.408
				c4.193,0.839,0.513-21.449,10.482-37.039c6.928-1.287,24.095-5.027,37.219-12.444V20.008
				C132.61,20.008,114.833,31.675,109.734,52.888z M122.727,76.334c0.373-0.542,0.76-1.077,1.167-1.599
				c5.319-6.801,14.146-12.143,23.03-14.896C140.042,68.231,128.587,73.853,122.727,76.334z"/>
			<path id="XMLID_271_" fill="#5B5449" d="M134.575,79.471c0,0,12.949-2.486,24.77-9.029v-5.568
				C149.414,74.363,134.575,79.471,134.575,79.471z"/>
			<path id="XMLID_279_" fill="#5B5449" d="M159.344,64.813v0.061c0.051-0.048,0.104-0.094,0.154-0.143
				C159.448,64.759,159.395,64.785,159.344,64.813z"/>
			<path id="XMLID_288_" fill="#49433A" d="M183.15,61.576c5.72,2.339,10.278,5.844,13.69,10.792
				c15.333,22.243,5.78,42.813,10.204,41.928c0.99-2.776,15.66-28.845,5.129-62.736c-3.046-9.808-13.144-11.215-13.144-11.215
				c1.62-11.525-6.418-22.365-6.418-22.365s1.269,5.074,1.16,10.517c-2.661-5.744-7.566-12.069-16.534-14.225
				c0,0,4.647,4.308,8.264,10.118c-0.066-0.031-0.126-0.066-0.193-0.096c-6.025-6.106-12.195-11.087-23.973-10.747
				c0,0,1.81,2.697,8.285,6.951c-3.282-0.334-6.722-0.49-10.277-0.49v44.805c0.05-0.028,0.104-0.054,0.154-0.083
				c-0.05,0.049-0.103,0.095-0.154,0.143v5.568c4.434-2.454,8.71-5.475,12.084-9.155c-2.837,4.051-7.229,7.591-12.084,10.59v4.477
				C168.495,72.9,177.688,68.088,183.15,61.576z"/>
		</g>
	</g>
</g>
</svg>
