<?xml version="1.0" encoding="utf-8"?>
<!-- Generator: Adobe Illustrator 16.0.4, SVG Export Plug-In . SVG Version: 6.00 Build 0)  -->
<!DOCTYPE svg PUBLIC "-//W3C//DTD SVG 1.1//EN" "http://www.w3.org/Graphics/SVG/1.1/DTD/svg11.dtd">
<svg version="1.1" id="Warstwa_1" xmlns="http://www.w3.org/2000/svg" xmlns:xlink="http://www.w3.org/1999/xlink" x="0px" y="0px"
	 width="320px" height="320px" viewBox="0 0 320 320" enable-background="new 0 0 320 320" xml:space="preserve">
<g id="XMLID_371_">
	<g id="XMLID_334_">
		<g id="XMLID_330_">
			<g id="XMLID_39_">
				<g id="XMLID_122_">
					<path id="XMLID_99_" fill="#4C1008" d="M159.177,40.003c-50.479,0-63.514,36.158-62.451,77.195
						c1.062,41.033-5.173,73.774-5.173,73.774l67.624,0.498V40.003z"/>
					<path id="XMLID_102_" fill="#EAE9E8" d="M131.55,213.373c-14.734,15.656-32.601,22.88-57.986,26.564
						c-30.554,4.434-34.562,33.047-34.562,40.998c0,7.952,0,37.42,0,37.42h120.176V213.373H131.55z"/>
					<path id="XMLID_132_" fill="#EAC1A4" d="M159.177,179.705h-28.103v21.812v14.537c0,5.398,8.913,22.522,28.103,22.522V179.705z"
						/>
					<g id="XMLID_124_">
						<path id="XMLID_126_" fill="#EBCFB7" d="M159.177,65.327c-41.44,0-47.579,29.96-47.579,66.918
							c0,37.847,31.86,66.918,47.579,66.918V65.327z"/>
					</g>
					<g id="XMLID_121_">
						<path id="XMLID_123_" fill="#EBCFB7" d="M110.667,126.874c-2.917-10.897-6.907-10.897-8.595-8.135
							c-1.688,2.763,4.144,13.506,4.297,22.255c0.154,8.749,2.75,10.066,5.979,6.875
							C115.579,144.677,110.667,126.874,110.667,126.874z"/>
					</g>
					<polygon id="XMLID_125_" fill="#DDDCDB" points="131.55,215.675 118.094,223.245 151.505,265.866 159.177,238.576 					"/>
					<polygon id="XMLID_117_" fill="#F4F2F2" points="131.074,213.724 118.094,223.245 151.505,263.416 159.177,238.576 					"/>
				</g>
				<g id="XMLID_36_">
					<path id="XMLID_17_" fill="#E26F80" d="M159.177,171.77c-4.811,0-6.47,0-15.346,0c0,0,8.458-4.176,11.53-4.198
						c2.1-0.014,2.286,1.34,3.815,1.34V171.77z"/>
					<path id="XMLID_33_" fill="#AF3854" d="M159.177,177.84c-7.299,0-7.814-3.035-12.484-4.866
						c-1.984-0.777-2.862-1.204-2.862-1.204h15.346V177.84z"/>
				</g>
				<circle id="XMLID_38_" fill="#CC646E" cx="110.038" cy="146.909" r="2.542"/>
			</g>
			<g id="XMLID_41_">
				<g id="XMLID_55_">
					<path id="XMLID_114_" fill="#420E04" d="M159.177,40.003c50.48,0,63.515,36.158,62.451,77.195
						c-1.063,41.033,5.172,73.774,5.172,73.774l-67.623,0.498V40.003z"/>
					<path id="XMLID_113_" fill="#DDDCDB" d="M186.805,213.373c14.733,15.656,32.6,22.88,57.984,26.564
						c30.557,4.434,34.564,33.047,34.564,40.998c0,7.952,0,37.42,0,37.42H159.177V213.373H186.805z"/>
					<path id="XMLID_112_" fill="#DDB192" d="M159.177,179.705h28.104v21.812v14.537c0,5.398-8.913,22.522-28.104,22.522V179.705z"
						/>
					<g id="XMLID_107_">
						<path id="XMLID_111_" fill="#DDC0AB" d="M159.177,65.327c41.441,0,47.58,29.96,47.58,66.918
							c0,37.847-31.86,66.918-47.58,66.918V65.327z"/>
					</g>
					<g id="XMLID_105_">
						<path id="XMLID_106_" fill="#EBCFB7" d="M207.688,126.874c2.917-10.897,6.906-10.897,8.595-8.135s-4.145,13.506-4.298,22.255
							s-2.749,10.066-5.979,6.875C202.775,144.677,207.688,126.874,207.688,126.874z"/>
					</g>
					<polygon id="XMLID_104_" fill="#DDDCDB" points="186.805,215.675 200.26,223.245 166.85,265.866 159.177,238.576 					"/>
					<polygon id="XMLID_103_" fill="#F4F2F2" points="187.281,213.724 200.26,223.245 166.85,263.416 159.177,238.576 					"/>
				</g>
				<g id="XMLID_45_">
					<path id="XMLID_53_" fill="#CC646E" d="M159.177,171.77c4.811,0,6.47,0,15.346,0c0,0-8.459-4.176-11.53-4.198
						c-2.101-0.014-2.287,1.34-3.816,1.34V171.77z"/>
					<path id="XMLID_48_" fill="#A33349" d="M159.177,177.84c7.299,0,7.815-3.035,12.485-4.866c1.983-0.777,2.861-1.204,2.861-1.204
						h-15.346V177.84z"/>
				</g>
				<circle id="XMLID_43_" fill="#CC646E" cx="208.317" cy="146.909" r="2.542"/>
			</g>
			<g id="XMLID_115_">
				<circle id="XMLID_40_" fill="#5B5656" cx="152.981" cy="275.179" r="2.988"/>
				<circle id="XMLID_116_" fill="#5B5656" cx="152.981" cy="292.946" r="2.988"/>
				<circle id="XMLID_119_" fill="#5B5656" cx="152.981" cy="310.714" r="2.988"/>
			</g>
			<path id="XMLID_127_" fill="#682319" d="M159.177,40.003c-26.706,0-44.465,11.654-49.558,32.845
				c-7.358,30.608,1.946,59.634,2.934,62.408c0,0-1.924-10.256,3.776-22.878c-1.169,7.928-0.876,13.87-0.876,13.87
				s24.768-6.587,43.725-18.59V40.003L159.177,40.003z"/>
			<path id="XMLID_130_" fill="#541A10" d="M179.717,84.776c7.99,3.602,14.713,10.037,20.543,20.56
				c7.867,14.198,5.541,29.92,5.541,29.92c0.988-2.774,10.293-31.8,2.936-62.408c-5.094-21.19-22.854-32.845-49.559-32.845v67.655
				C169.009,101.433,177.279,93.753,179.717,84.776z"/>
		</g>
	</g>
</g>
</svg>
